<svg xmlns:dc="http://purl.org/dc/elements/1.1/" xmlns:cc="http://creativecommons.org/ns#" xmlns:rdf="http://www.w3.org/1999/02/22-rdf-syntax-ns#" xmlns:svg="http://www.w3.org/2000/svg" xmlns="http://www.w3.org/2000/svg" xmlns:sodipodi="http://sodipodi.sourceforge.net/DTD/sodipodi-0.dtd" xmlns:inkscape="http://www.inkscape.org/namespaces/inkscape" version="1.1" x="0px" y="0px" viewBox="0 0 1110.806 1388.6850000000002" enable-background="new 0 0 2000 2000" xml:space="preserve"><path style="" d="M 555.355,0 C 249.167,0 0,249.125 0,555.359 c 0,148.378 57.776,287.89 162.67,392.828 104.893,104.94 244.354,162.761 392.685,162.761 306.189,0 555.451,-249.211 555.451,-555.589 C 1110.706,249.125 861.544,0 555.355,0 Z m 0,94.332 c 110.526,0 212.084,39.092 291.597,104.156 L 198.249,847.144 C 130.911,764.971 94.327,662.994 94.327,555.359 94.327,301.147 301.095,94.332 555.355,94.332 Z m 358.146,170.98 c 64.35,79.277 102.977,180.232 102.977,290.047 -0.1,254.356 -206.861,461.261 -461.123,461.261 -106.997,0 -208.429,-36.23 -290.302,-102.9 L 913.501,265.312 Z" fill="#000000"/><text x="0" y="1125.948" fill="#000000" font-size="5px" font-weight="bold" font-family="'Helvetica Neue', Helvetica, Arial-Unicode, Arial, Sans-serif">Created by logan</text><text x="0" y="1130.948" fill="#000000" font-size="5px" font-weight="bold" font-family="'Helvetica Neue', Helvetica, Arial-Unicode, Arial, Sans-serif">from the Noun Project</text></svg>