<?xml version="1.0" standalone="no"?><svg xmlns="http://www.w3.org/2000/svg" viewBox="0 0 1440 320"><path fill="#1d6343" fill-opacity="1" d="M0,192L24,181.3C48,171,96,149,144,122.7C192,96,240,64,288,48C336,32,384,32,432,48C480,64,528,96,576,101.3C624,107,672,85,720,64C768,43,816,21,864,42.7C912,64,960,128,1008,149.3C1056,171,1104,149,1152,149.3C1200,149,1248,171,1296,154.7C1344,139,1392,85,1416,58.7L1440,32L1440,0L1416,0C1392,0,1344,0,1296,0C1248,0,1200,0,1152,0C1104,0,1056,0,1008,0C960,0,912,0,864,0C816,0,768,0,720,0C672,0,624,0,576,0C528,0,480,0,432,0C384,0,336,0,288,0C240,0,192,0,144,0C96,0,48,0,24,0L0,0Z"></path></svg>